<svg xmlns="http://www.w3.org/2000/svg" width="76.077" height="76.08" viewBox="0 0 76.077 76.08">
    <path id="Differenzmenge_1" data-name="Differenzmenge 1" d="M32.325,78.447a5.675,5.675,0,0,1-4.04-1.674L20.2,68.692a5.714,5.714,0,1,0-8.081-8.081L4.041,52.529a5.721,5.721,0,0,1,0-8.082L44.447,4.041a5.714,5.714,0,0,1,8.082,0l8.081,8.081A5.714,5.714,0,1,0,68.692,20.2l8.081,8.082a5.713,5.713,0,0,1,0,8.081L36.366,76.773A5.677,5.677,0,0,1,32.325,78.447ZM45.795,14.653a2.84,2.84,0,0,0-2.021.836L15.489,43.774a2.862,2.862,0,0,0,0,4.041L33,65.325a2.856,2.856,0,0,0,4.04,0L65.325,37.039a2.856,2.856,0,0,0,0-4.04L47.815,15.489A2.84,2.84,0,0,0,45.795,14.653Zm-10.776,47.3h0L18.857,45.795,45.795,18.857,61.957,35.019Zm1.462-28.733a1,1,0,0,0-.7.3.961.961,0,0,0-.276.694l.058,4.492L31.889,41.3a.954.954,0,0,0-.4.948.965.965,0,0,0,.672.776l4.292,1.335,1.335,4.292a.974.974,0,0,0,.936.685.956.956,0,0,0,.788-.411l2.595-3.67,4.493.058h.014a.968.968,0,0,0,.87-.538.955.955,0,0,0-.09-1.018l-2.687-3.6L46.153,35.9a.962.962,0,0,0-.13-.878.975.975,0,0,0-.788-.411.99.99,0,0,0-.318.053l-4.256,1.444-3.6-2.686A.958.958,0,0,0,36.481,33.224Z" transform="translate(-2.37 -2.367)" fill="#ffc400"/>
</svg>
