<svg xmlns="http://www.w3.org/2000/svg" width="320.323" height="113.223" viewBox="0 0 320.323 113.223"><defs><style>.a{fill:#fff;}.b{opacity:0.6;}</style></defs><g transform="translate(-18.37 -149.29)"><path class="a" d="M56.8,149.3v49.956H48.338V178.535a108.9,108.9,0,0,1,1.017-14.8l-8.164,22.6H33.9l-8.239-22.6a92.96,92.96,0,0,1,1.093,14.8v20.719H18.37V149.3H27.7L37.547,177l9.841-27.706Z" transform="translate(0)"/><path class="a" d="M151.142,199.278,148.733,186.8H137.505l-2.333,12.476H126.79l10.354-49.948h12.178L159.6,199.278Zm-12.25-19.908h8.386L143.05,157.2Z" transform="translate(-65.328 -0.024)"/><path class="a" d="M229.844,180.447v18.819H221.1V149.31h14.73q5.91,0,9.141,2.882t3.247,8.2v8.529q0,8.458-6.125,10.644l7.874,19.7h-9.626l-6.928-18.811Zm0-23.625v16.55h5.1a3.853,3.853,0,0,0,4.519-4.519v-7.8q0-4.229-4.519-4.229Z" transform="translate(-122.154 -0.012)"/><path class="a" d="M307.67,149.31h8.744v49.956H307.67Zm19.177,0h9.4l-9.622,24.427,10.354,25.528h-9.706l-9.845-25.373Z" transform="translate(-174.317 -0.012)"/><path class="a" d="M393.16,149.31h23.99v7.655H401.908v13.2h13.2V177.8h-13.2v13.78H417.15v7.683H393.16Z" transform="translate(-225.829 -0.012)"/><path class="a" d="M487.461,149.31v7.655H478.2v42.3h-8.819v-42.3H460.12V149.31Z" transform="translate(-266.175 -0.012)"/><path class="a" d="M18.37,306.66H33.1q5.906,0,9.141,2.917t3.243,8.239v12.178q0,5.322-3.243,8.239T33.1,341.151H27.189v15.457H18.37Zm18.374,12.031q0-4.372-4.595-4.372h-4.96v19.249h4.944q4.591,0,4.595-4.448Z" transform="translate(0 -94.823)"/><path class="a" d="M100.55,317.3a11.917,11.917,0,0,1,3.577-9.078q3.577-3.39,10.572-3.39t10.608,3.39a11.875,11.875,0,0,1,3.613,9.078v26.466a11.856,11.856,0,0,1-3.613,9.078q-3.613,3.39-10.608,3.39t-10.572-3.39a11.936,11.936,0,0,1-3.577-9.078Zm19.614.437q0-4.96-5.433-4.956t-5.429,4.956v25.592q0,4.96,5.429,4.96t5.433-4.96Z" transform="translate(-49.517 -93.72)"/><path class="a" d="M198.654,337.8v18.811H189.91V306.66h14.742q5.91,0,9.141,2.882t3.247,8.2v8.525q0,8.458-6.125,10.648l7.874,19.686h-9.634L202.227,337.8Zm0-23.625v16.55h5.1a3.853,3.853,0,0,0,4.519-4.519v-7.8q0-4.225-4.519-4.229Z" transform="translate(-103.361 -94.823)"/><path class="a" d="M295.2,306.66v7.659h-9.257v42.289h-8.823V314.319H267.86V306.66Z" transform="translate(-150.329 -94.823)"/><g class="b" transform="translate(150.944 211.464)"><path class="a" d="M351.93,306.66h15.9q5.831,0,9,2.878t3.18,8.279v27.2q0,11.59-11.737,11.59H351.93Zm19.32,11.447q0-4.153-4.519-4.157h-6.053v35.071h6.053q4.519,0,4.519-4.666Z" transform="translate(-351.93 -306.286)"/><path class="a" d="M440.53,306.66h8.823V356.6H440.53Z" transform="translate(-405.316 -306.286)"/><path class="a" d="M480.7,317.612a10.545,10.545,0,0,1,3.974-8.712q3.974-3.176,10.755-3.18a35.176,35.176,0,0,1,10.731,1.312v8.339a28.162,28.162,0,0,0-9.622-1.59q-7,0-7,4.738v25.6q0,4.448,5.835,4.448a7.673,7.673,0,0,0,4.082-.95V330.076h8.593V353.41a26.971,26.971,0,0,1-12.758,2.989q-7.079,0-10.831-2.953t-3.756-8.569Z" transform="translate(-429.52 -305.72)"/><path class="a" d="M567.11,306.66h8.823V356.6H567.11Z" transform="translate(-481.586 -306.286)"/><path class="a" d="M627.841,306.66v7.655h-9.257V356.6h-8.823V314.315H600.5V306.66Z" transform="translate(-501.705 -306.286)"/><path class="a" d="M696.766,356.634l-2.409-12.448H683.129L680.8,356.654H672.41l10.354-49.944h12.178l10.294,49.924Zm-12.254-19.9h8.4l-4.229-22.166Z" transform="translate(-545.034 -306.317)"/><path class="a" d="M766.71,306.66h8.82v42.528H789.6v7.436H766.71Z" transform="translate(-601.854 -306.286)"/></g></g></svg>