<svg xmlns="http://www.w3.org/2000/svg" xmlns:xlink="http://www.w3.org/1999/xlink" width="342.947" height="208.214" viewBox="0 0 342.947 208.214"><defs><style>.a{fill:url(#a);}.b{clip-path:url(#b);}</style><linearGradient id="a" x1="0.5" x2="0.5" y2="1" gradientUnits="objectBoundingBox"><stop offset="0" stop-color="#343e6f"/><stop offset="1" stop-color="#dc7988"/></linearGradient><clipPath id="b"><rect class="a" width="342.947" height="208.214"/></clipPath></defs><g class="b" transform="translate(0)"><path class="a" d="M14.089,66.607c1.555.119,3.14-.114,4.689.041,6.56.657,12.264-1.728,17.8-4.815,8.555-4.772,15.648-11.285,22.351-18.34a83.576,83.576,0,0,1,10.157-9.008c1.884-1.424,2.308-2.666,1.824-4.831A67.534,67.534,0,0,0,61.2,7.5c-1.076-1.651-2.076-3.369-.933-5.387C61.392.125,63.336-.012,65.334,0c6.808.042,12.98,2.358,18.921,5.391,9.629,4.915,18.036,11.559,25.956,18.827,1.73,1.588,2.873,1.732,4.906.372a135.079,135.079,0,0,1,14.517-8.738A120.354,120.354,0,0,1,179.906,3.282c21.8-.755,42.529,3.366,61.849,13.6,23.533,12.462,40.7,30.482,48.291,56.615a14.249,14.249,0,0,0,.856,1.857c6.05-2.574,12.1-4.657,16.636-9.946a6.9,6.9,0,0,0-1-.272c-.521,0-1.042.028-1.563.041a14.066,14.066,0,0,1-11.9-5.495c-6.848-8.5-2.757-20.652,7.736-22.451,7.147-1.226,15.965,2.174,18.5,11.78.617,2.339.877,4.771,1.371,7.554a74.853,74.853,0,0,0,7.5-3.115c5.1-2.783,9.538-6.329,12.189-11.742.3-.624,1.466-.828,2.231-1.227.1.824.535,1.8.241,2.449a31.007,31.007,0,0,1-18.391,16.884,9.4,9.4,0,0,0-6.371,6.119c-4.172,10.729-12.659,17-23.263,20.588-1.887.639-2.525,1.418-2.248,3.291a28.337,28.337,0,0,1,.3,4.454c-.186,15.46-4.732,29.424-14.344,41.646a7.675,7.675,0,0,0-1.318,2.3c-1.644,5.1-3.214,10.218-4.809,15.331q-7.544,24.177-15.1,48.349c-1.486,4.73-3.572,6.183-8.518,6.206q-4.359.02-8.716,0c-6.216-.018-8.7-2.473-8.7-8.657q-.02-15.084,0-30.17v-2.6c-4.032.08-4.874.709-5.759,4.123-1.641,6.338-3.262,12.681-4.9,19.018-1.178,4.549-3.431,6.358-8.1,6.432q-4.692.075-9.387,0c-5.589-.078-8.135-2.66-8.18-8.294-.035-4.246-.123-8.5.038-12.737.086-2.257-.738-2.767-2.844-2.627a105.264,105.264,0,0,1-11.607.3c-11.381-.5-22.756-1.168-34.128-1.869-1.776-.109-2.467.417-2.9,2.136-2.424,9.669-4.944,19.314-7.493,28.952-1.132,4.281-3.448,6.02-7.9,6.081-3.128.044-6.257.033-9.387.006-5.739-.047-8.263-2.587-8.3-8.388-.031-5.662-.007-11.323-.008-16.985V177.34a2.336,2.336,0,0,0-1.076,1.463c-1.035,3.881-1.975,7.79-3.084,11.649-1.18,4.109-3.354,5.81-7.578,5.939-3.423.1-6.854.087-10.279,0-2.909-.073-5.541-1.008-6.767-3.867a13.234,13.234,0,0,1-.925-4.98c-.086-9.162-.055-18.325-.025-27.488a2.544,2.544,0,0,0-1.591-2.784c-5.185-2.424-10.383-4.851-15.4-7.594a79.405,79.405,0,0,1-20.51-16,68.223,68.223,0,0,1-14.4-23.666A2.868,2.868,0,0,0,25.6,107.8c-3.869.132-7.755-.127-11.618.081-5.057.272-8.486-2.069-10.56-6.373A31.386,31.386,0,0,1,3.479,72.9c2.1-4.3,5.578-6.674,10.61-6.289M311.1,53.487c-.361-4.988-2.017-7.394-5.953-8.65a6.611,6.611,0,0,0-8.736,6.578,8.347,8.347,0,0,0,9.812,8.087c.147-.026.289-.07.435-.1,4.026-.773,4.744-1.73,4.442-5.917M5.873,92.587c1.075,1.565,2.646,1.58,3.484-.155a26.4,26.4,0,0,0,1.26-4.378A26.5,26.5,0,0,0,9.19,83.686c-.784-1.5-2.162-1.423-3.2-.049-1.516,2.007-1.579,6.821-.116,8.949" transform="translate(0.001 0)"/></g></svg>