<svg xmlns="http://www.w3.org/2000/svg" xmlns:xlink="http://www.w3.org/1999/xlink" width="88.307" height="88.307" viewBox="0 0 88.307 88.307"><defs><style>.a{fill:url(#a);}</style><linearGradient id="a" x1="0.5" x2="0.5" y2="1" gradientUnits="objectBoundingBox"><stop offset="0" stop-color="#d70000"/><stop offset="1" stop-color="#d70000"/></linearGradient></defs><g transform="translate(-35 -672.002)"><g transform="translate(35 672.002)"><path class="a" d="M45.654,1.5A44.164,44.164,0,0,1,62.841,86.336,44.164,44.164,0,0,1,28.466,4.971,43.88,43.88,0,0,1,45.654,1.5Zm0,80.279A36.126,36.126,0,0,0,71.2,20.109,36.126,36.126,0,1,0,20.109,71.2,35.889,35.889,0,0,0,45.654,81.779Z" transform="translate(-1.5 -1.5)"/><path class="a" d="M27.509,41.126A4.015,4.015,0,0,1,26.24,33.3c2.405-.815,9.3-4.085,9.3-8.234a8.028,8.028,0,0,0-15.6-2.682,4.014,4.014,0,0,1-7.573-2.664,16.056,16.056,0,0,1,31.2,5.352c0,3.263-1.355,8.063-7.808,12.365a32.567,32.567,0,0,1-6.978,3.479A4.012,4.012,0,0,1,27.509,41.126Z" transform="translate(16.325 11.056)"/><circle class="a" cx="3.697" cy="3.697" r="3.697" transform="translate(40.673 60.452)"/></g></g></svg>