<svg xmlns="http://www.w3.org/2000/svg" xmlns:xlink="http://www.w3.org/1999/xlink" width="152.411" height="152.703" viewBox="0 0 152.411 152.703">
  <defs>
    <clipPath id="clip-path">
      <rect id="Rechteck_106" data-name="Rechteck 106" width="152.411" height="152.703" fill="#555"/>
    </clipPath>
  </defs>
  <g id="Gruppe_310" data-name="Gruppe 310" opacity="0.427">
    <g id="Gruppe_284" data-name="Gruppe 284" clip-path="url(#clip-path)">
      <path id="Pfad_25" data-name="Pfad 25" d="M117.7,150.333c.011-1.64,0-3.28,0-4.92a40.869,40.869,0,0,0-7.765-24.119,3.177,3.177,0,0,1-.556-1.754c.017-1.836.142-3.674.273-5.507.477-6.674-3.328-10.8-10.008-10.8q-10.863-.01-21.726,0c-2.331,0-3.411-1.017-3.485-3.385-.052-1.688.037-3.381-.035-5.068a2.137,2.137,0,0,1,.975-1.957c1.729-1.4,3.727-2.692,4.906-4.494,1.775-2.712,3.827-3.575,7.031-3.472a8.727,8.727,0,0,0,8.856-8.92c.052-5.566.015-11.133.012-16.7a6.847,6.847,0,0,0-3.084-5.958,2.018,2.018,0,0,1-.958-1.96c.032-3.379.07-6.76,0-10.138-.121-5.566-3.645-9.314-9.122-9.917a1.541,1.541,0,0,1-1.071-.974c-.851-5.678-4.507-8.957-10.2-8.976-7.639-.025-15.278-.041-22.916,0a20.977,20.977,0,0,0-21.16,18.361c-.528,3.859-.235,7.833-.272,11.755a1.849,1.849,0,0,1-.918,1.808,6.76,6.76,0,0,0-3.159,5.771c-.081,2.93-.112,5.867,0,8.795a7.166,7.166,0,0,0,7.352,7.052c.879.013,1.759,0,2.582,0a3.314,3.314,0,0,1,.157.433A25.253,25.253,0,0,0,44.463,93.079a1.386,1.386,0,0,1,.586.936c.022,2.184.083,4.379-.1,6.551-.155,1.847-1.251,2.66-3.067,2.66-7.539,0-15.079-.029-22.619.012-5.689.031-9.568,4-9.452,9.613.042,2.036.295,4.07.263,6.1a5.188,5.188,0,0,1-.79,2.707,44.014,44.014,0,0,0-6.376,14.171c-1.378,5.48-1.059,11.048-1.143,16.6a4.318,4.318,0,0,1-.6,2.044,7.091,7.091,0,0,0-.831,6c.918,2.9,3.128,4.328,5.922,5.044H113.416c.266-.106.525-.237.8-.315,4.333-1.247,6.637-5.9,4.533-9.769a9.863,9.863,0,0,1-1.05-5.105m-8.836-21.57c4.173,7.031,4.726,14.634,4.278,22.5h-5.478q.6-11.286,1.2-22.5M76.571,83.958c-1.875.061-3.757.064-5.632-.013a1.6,1.6,0,0,1,.084-3.205c.938-.029,1.878-.006,2.817-.006v-.006c.89,0,1.78-.01,2.67,0a1.615,1.615,0,1,1,.061,3.228m8.459-3.571,1.211-5.406,5.341-.387c.615,4.058-1.751,6.22-6.552,5.793m6.657-21.577c0,2.871.078,6.037-.035,9.2a2.44,2.44,0,0,1-2.466,2.344c-.876.087-1.768.016-2.837.016,0-2.693-.016-5.308.027-7.921,0-.24.351-.537.606-.7,1.544-.987,3.108-1.944,4.7-2.935M33.125,70.357a27.859,27.859,0,0,1-2.921-.02,2.343,2.343,0,0,1-2.318-2.151c-.129-3.2-.043-6.408-.043-9.334,1.615.977,3.253,1.949,4.865,2.962a.991.991,0,0,1,.4.709c.029,2.568.018,5.136.018,7.833m-.1-13.28a2.2,2.2,0,0,1-1.113-1.594c-.046-5.017-.427-10.09.171-15.04,1.061-8.775,7.9-14.534,16.751-14.646,7.688-.1,15.378-.041,23.068-.013,3.32.012,5.255,1.848,5.561,5.14a4.853,4.853,0,0,0,5.013,4.83,5.068,5.068,0,0,1,5.175,5.215c.089,4.671.028,9.344.026,14.016a2.264,2.264,0,0,1-1.681,2.352c-1.493.5-2.977,1.027-4.644,1.6-.06-.591-.135-1-.137-1.416-.01-2.436.015-4.871,0-7.307-.058-7.252-5.805-11.838-12.9-10.319-2.079.445-4.147.975-6.248,1.266a21.375,21.375,0,0,1-9.112-.84,12.621,12.621,0,0,0-7.749-.165,9.718,9.718,0,0,0-6.818,9.009c-.079,2.632-.025,5.268-.031,7.9,0,.534,0,1.068,0,1.943-2.01-.71-3.717-1.214-5.325-1.939m4.712,15.729c-.187-3.06-.029-6.142-.029-9.29.274-.067.551-.153.833-.2A4.768,4.768,0,0,0,42.8,58.406c.047-2.683.128-5.374-.023-8.05-.238-4.214,3.05-7.228,7.7-6.012a32.015,32.015,0,0,0,12.337,1.265c1.713-.223,3.4-.673,5.1-1a17.585,17.585,0,0,1,2.918-.474,5.453,5.453,0,0,1,5.91,5.669c.058,2.434.01,4.871.008,7.306,0,4.309.894,5.465,5.137,6.435-.213,4.727.571,9.542-.888,14.3-3.7-2.535-7.744-1.72-11.6-1.323-2.8.288-4.653,3.31-4.486,6.193a6.019,6.019,0,0,0,5.087,5.6c1.065.16,2.154.164,3.232.239-6.744,5.1-14.1,6.351-21.852,3.151-8.336-3.439-13.083-9.753-13.64-18.9M70.3,103.134H49.2l.511-7.18a27.146,27.146,0,0,0,20.088.006c.169,2.437.331,4.763.5,7.175M10.586,128.446c.131,2.013.241,3.8.366,5.585.127,1.807.923,2.686,2.347,2.619,1.446-.069,2.2-1.147,2.1-3-.373-6.8-.778-13.59-1.1-20.389-.177-3.7,1.646-5.559,5.325-5.56q40.1-.008,80.2,0c3.88,0,5.633,2.019,5.406,5.93-.579,9.969-1.089,19.942-1.624,29.913-.12,2.232-.183,4.47-.385,6.694-.035.391-.628,1.047-.966,1.049-11.208.043-22.415.021-33.623,0a.274.274,0,0,1-.1-.028H63.387l-.023.067c-2.112,0-4.43.034-6.744-.04a.445.445,0,0,1-.13-.027H37.643V151.2h-21.3c-.1-1.838-.177-3.661-.306-5.481-.045-.636,0-1.488-.374-1.844a3.838,3.838,0,0,0-2.32-1.148,1.829,1.829,0,0,0-1.768,2.024c.014,1.539.111,3.078.177,4.616.025.583.061,1.165.1,1.862H6.359c-.805-8.234.915-17.727,4.227-22.782M113.118,160.82a6.234,6.234,0,0,1-1.618.15q-51.773.01-103.547,0A5.658,5.658,0,0,1,6.2,160.76a2.511,2.511,0,0,1,.248-4.825,9.464,9.464,0,0,1,1.922-.12q25.738-.009,51.476,0,25.664,0,51.327,0a9.276,9.276,0,0,1,1.777.093,2.524,2.524,0,0,1,.171,4.914" transform="translate(0 -12.82)" fill="#555"/>
      <path id="Pfad_26" data-name="Pfad 26" d="M292.12,0H252.53a4.158,4.158,0,0,1-.658.276,8.6,8.6,0,0,0-6.994,8.329q-.163,9.605,0,19.216a8.665,8.665,0,0,0,8.114,8.551c1.8.147,2.173.556,2.178,2.431.009,3.526.017,7.051,0,10.577a3.643,3.643,0,0,0,1.664,3.295c1.841,1.208,4.051.617,5.323-1.48,2.674-4.41,5.334-8.828,7.936-13.28a2.8,2.8,0,0,1,2.753-1.554c6.046.056,12.092.029,18.139.023a8.366,8.366,0,0,0,7.233-3.708,22.976,22.976,0,0,0,1.646-3.447V22.965c-.656-1.134-1.562-1.878-2.925-1.434s-1.61,1.6-1.547,2.893c.039.793.01,1.59.007,2.385-.011,3.5-1.6,5.1-5.081,5.1-5.952,0-11.9.021-17.855-.007a6.352,6.352,0,0,0-5.992,3.413c-.808,1.424-1.683,2.81-2.525,4.214q-2.008,3.349-4.012,6.7c-.3-2.74-.264-5.4-.307-8.055a6.089,6.089,0,0,0-5.585-6.245c-3.4-.324-4.731-1.774-4.735-5.193q-.012-8.423,0-16.847c0-3.777,1.565-5.344,5.335-5.345q17.706,0,35.414,0c.4,0,.8-.013,1.189.022a4.286,4.286,0,0,1,4.148,4.4q.047,1.639,0,3.28c-.035,1.253.073,2.421,1.436,2.971s2.221-.3,3.035-1.2V7.158a38.462,38.462,0,0,0-2.421-4.29C296.157,1.127,294.088.6,292.12,0" transform="translate(-147.448)" fill="#555"/>
      <path id="Pfad_27" data-name="Pfad 27" d="M273.235,58.771c4.858.043,9.717.023,14.576.023q5.355,0,10.709,0c1.586,0,3.175.034,4.756-.058a1.948,1.948,0,0,0,1.951-2.044,2.033,2.033,0,0,0-1.863-2.286,7.876,7.876,0,0,0-1.333-.078q-14.278-.005-28.557,0a3.123,3.123,0,0,0-1.6.182,3.227,3.227,0,0,0-1.451,1.657,2.63,2.63,0,0,0,.742,2.061,3.286,3.286,0,0,0,2.066.541" transform="translate(-162.874 -32.717)" fill="#555"/>
      <path id="Pfad_28" data-name="Pfad 28" d="M319.164,27.887q-9.28-.027-18.561,0c-1.64,0-2.62.858-2.658,2.186-.039,1.377.979,2.262,2.691,2.272,3.068.018,6.137,0,9.206,0,3.118,0,6.237.014,9.355-.005,1.7-.011,2.6-.771,2.631-2.154.034-1.424-.929-2.3-2.664-2.3" transform="translate(-179.463 -16.789)" fill="#555"/>
      <path id="Pfad_29" data-name="Pfad 29" d="M272.131,32.358a10.309,10.309,0,0,0,1.331.009v.009c.493,0,.99.035,1.48-.007a2.059,2.059,0,0,0,2.021-2,1.951,1.951,0,0,0-1.657-2.287,11.126,11.126,0,0,0-3.514.018,1.928,1.928,0,0,0-1.577,2.33,2.029,2.029,0,0,0,1.915,1.926" transform="translate(-162.75 -16.837)" fill="#555"/>
    </g>
  </g>
</svg>
