<svg xmlns="http://www.w3.org/2000/svg" width="37.398" height="37.398" viewBox="0 0 37.398 37.398"><defs><style>.a{fill:#555;}</style></defs><path class="a" d="M20.2,1.5a18.7,18.7,0,0,1,7.279,35.928A18.7,18.7,0,0,1,12.92,2.97,18.583,18.583,0,0,1,20.2,1.5Zm0,34A15.3,15.3,0,1,0,9.381,31.017,15.2,15.2,0,0,0,20.2,35.5Z" transform="translate(-1.5 -1.5)"/><path class="a" d="M25.805,26.114a1.853,1.853,0,0,1-.831-.2l-7.445-3.723A1.861,1.861,0,0,1,16.5,20.529V9.361a1.861,1.861,0,0,1,3.723,0V19.379l6.416,3.208a1.862,1.862,0,0,1-.834,3.527Z" transform="translate(-0.106 -1.238)"/></svg>