<svg xmlns="http://www.w3.org/2000/svg" xmlns:xlink="http://www.w3.org/1999/xlink" id="Gruppe_312" data-name="Gruppe 312" width="76.055" height="76.042" viewBox="0 0 76.055 76.042">
    <defs>
        <clipPath id="clip-path">
            <rect id="Rechteck_111" data-name="Rechteck 111" width="76.054" height="76.042" fill="#fff"/>
        </clipPath>
    </defs>
    <g id="Gruppe_310" data-name="Gruppe 310" clip-path="url(#clip-path)">
        <path id="Pfad_32" data-name="Pfad 32" d="M76.052,37.554A38.028,38.028,0,1,1,38.517,0,38.022,38.022,0,0,1,76.052,37.554M38.038,5.944A32.072,32.072,0,1,0,70.1,38.2,32.046,32.046,0,0,0,38.038,5.944" transform="translate(0 0)" fill="#fff"/>
        <path id="Pfad_33" data-name="Pfad 33" d="M109.871,110.936c0,3.341.006,6.682-.009,10.023,0,.351.1.426.431.417q1.261-.033,2.524,0a2.965,2.965,0,0,1,.705,5.824,3.208,3.208,0,0,1-.805.115q-5.81,0-11.621,0a2.969,2.969,0,1,1-.017-5.938c.854,0,1.708-.009,2.562,0,.225,0,.293-.055.293-.288q-.01-8.445,0-16.89c0-.209-.048-.255-.269-.25-.853.02-1.708.017-2.561,0a2.96,2.96,0,0,1-2.727-4.228,2.727,2.727,0,0,1,2.439-1.684c2.1-.084,4.209-.1,6.309,0a2.888,2.888,0,0,1,2.748,3.026q0,4.937,0,9.874" transform="translate(-68.875 -68.794)" fill="#fff"/>
        <path id="Pfad_34" data-name="Pfad 34" d="M118.9,56.649a3.712,3.712,0,1,1,3.757-3.585,3.731,3.731,0,0,1-3.757,3.585" transform="translate(-80.916 -34.566)" fill="#fff"/>
    </g>
</svg>