<svg xmlns="http://www.w3.org/2000/svg" width="37.714" height="41.905" viewBox="0 0 37.714 41.905"><defs><style>.a{fill:#5e6954;}</style></defs><path class="a" d="M40.119,37.762a2.1,2.1,0,0,1-2.1-2.1v-4.19a6.293,6.293,0,0,0-6.286-6.286H14.976A6.286,6.286,0,0,0,8.69,31.476v4.19a2.1,2.1,0,1,1-4.19,0v-4.19A10.476,10.476,0,0,1,14.976,21H31.738A10.488,10.488,0,0,1,42.214,31.476v4.19A2.1,2.1,0,0,1,40.119,37.762Z" transform="translate(-4.5 4.143)"/><path class="a" d="M20.976,3A10.476,10.476,0,1,1,10.5,13.476,10.488,10.488,0,0,1,20.976,3Zm0,16.762a6.286,6.286,0,1,0-6.286-6.286A6.293,6.293,0,0,0,20.976,19.762Z" transform="translate(-2.119 -3)"/></svg>