<svg xmlns="http://www.w3.org/2000/svg" width="41.904" height="46.095" viewBox="0 0 41.904 46.095"><defs><style>.a{fill:#ad5e6a;}</style></defs><path class="a" d="M9.286,4.5H38.619A6.293,6.293,0,0,1,44.9,10.786V40.119A6.293,6.293,0,0,1,38.619,46.4H9.286A6.293,6.293,0,0,1,3,40.119V10.786A6.293,6.293,0,0,1,9.286,4.5ZM38.619,42.214a2.1,2.1,0,0,0,2.1-2.1V10.786a2.1,2.1,0,0,0-2.1-2.1H9.286a2.1,2.1,0,0,0-2.1,2.1V40.119a2.1,2.1,0,0,0,2.1,2.1Z" transform="translate(-3 -0.31)"/><path class="a" d="M24.6,14.071a2.1,2.1,0,0,1-2.1-2.1V3.6a2.1,2.1,0,1,1,4.19,0v8.381A2.1,2.1,0,0,1,24.6,14.071Z" transform="translate(4.738 -1.5)"/><path class="a" d="M12.6,14.071a2.1,2.1,0,0,1-2.1-2.1V3.6a2.1,2.1,0,1,1,4.19,0v8.381A2.1,2.1,0,0,1,12.6,14.071Z" transform="translate(-0.024 -1.5)"/><path class="a" d="M42.809,17.69H5.1a2.1,2.1,0,0,1,0-4.19H42.809a2.1,2.1,0,0,1,0,4.19Z" transform="translate(-3 3.262)"/></svg>