<svg xmlns="http://www.w3.org/2000/svg" width="29.606" height="39.475" viewBox="0 0 29.606 39.475"><defs><style>.a{fill:#ad5e6a;}</style></defs><path class="a" d="M17.27,10.486V0H1.85A1.846,1.846,0,0,0,0,1.85V37.625a1.846,1.846,0,0,0,1.85,1.85H27.756a1.846,1.846,0,0,0,1.85-1.85V12.336H19.121A1.856,1.856,0,0,1,17.27,10.486Zm5.894,16.3L15.731,34.16a1.315,1.315,0,0,1-1.853,0L6.443,26.781a1.233,1.233,0,0,1,.867-2.109h5.025V18.5A1.233,1.233,0,0,1,13.57,17.27h2.467A1.233,1.233,0,0,1,17.27,18.5v6.168H22.3A1.234,1.234,0,0,1,23.165,26.781ZM29.067,8.1,21.519.54A1.849,1.849,0,0,0,20.208,0h-.47V9.869h9.869V9.4A1.844,1.844,0,0,0,29.067,8.1Z"/></svg>