<svg xmlns="http://www.w3.org/2000/svg" width="19.901" height="19.901" viewBox="0 0 19.901 19.901">
  <path id="Icon_metro-power-cord" data-name="Icon metro-power-cord" d="M24.437,7.792,22.558,5.913l-3.71,3.71L16.741,7.517l3.71-3.71L18.573,1.928l-3.71,3.71L12.481,3.256l-1.8,1.8L21.31,15.682l1.8-1.8L20.726,11.5Zm-4.773,8.122L10.451,6.7c-1.989,2.385-4.245,6.07-2.686,9.241L5.02,18.688a1.665,1.665,0,0,0,0,2.348l.308.308a1.665,1.665,0,0,0,2.348,0L10.422,18.6c3.171,1.559,6.856-.7,9.241-2.686Z" transform="translate(-4.536 -1.928)" fill="#808080"/>
</svg>
