<svg xmlns="http://www.w3.org/2000/svg" width="20.624" height="20.625" viewBox="0 0 20.624 20.625">
    <path id="Icon_awesome-ticket-alt" data-name="Icon awesome-ticket-alt"
          d="M3.889,2.917h9.722V8.75H3.889ZM16.042,5.833A1.458,1.458,0,0,0,17.5,7.292v2.917a1.458,1.458,0,0,1-1.458,1.458H1.458A1.458,1.458,0,0,1,0,10.209V7.292A1.458,1.458,0,0,0,1.458,5.833,1.458,1.458,0,0,0,0,4.375V1.458A1.458,1.458,0,0,1,1.458,0H16.042A1.458,1.458,0,0,1,17.5,1.458V4.375A1.458,1.458,0,0,0,16.042,5.833Zm-1.458-3.16a.729.729,0,0,0-.729-.729H3.646a.729.729,0,0,0-.729.729v6.32a.729.729,0,0,0,.729.729H13.855a.729.729,0,0,0,.729-.729Z"
          transform="translate(20.624 8.25) rotate(135)" fill="#8b4513"/>
</svg>
