<svg xmlns="http://www.w3.org/2000/svg" width="14.305" height="22.888" viewBox="0 0 14.305 22.888">
  <path id="Icon_map-restaurant" data-name="Icon map-restaurant" d="M12.922,1.164V6.442h-.954V1.2a.477.477,0,1,0-.954,0V6.442h-.954V1.18a.478.478,0,0,0-.954-.016V6.442H8.154V1.2A.477.477,0,0,0,7.2,1.176v6.9A1.8,1.8,0,0,0,9.107,9.728V22.177a1.43,1.43,0,0,0,2.861,0V9.728a1.909,1.909,0,0,0,1.907-1.539V1.18a.478.478,0,0,0-.954-.015Zm4.291,1.463V14.548h.954v7.629c0,1.907,3.338,1.907,3.338,0V2.627C21.5.243,17.213.243,17.213,2.627Z" transform="translate(-7.2 -0.72)" fill="#808080"/>
</svg>
