<svg xmlns="http://www.w3.org/2000/svg" width="34.328" height="23.766" viewBox="0 0 34.328 23.766"><defs><style>.a{fill:#ad5e6a;}</style></defs><path class="a" d="M37.422,10.365l-8.879,9.044a.16.16,0,0,0,0,.231l6.214,6.618a1.071,1.071,0,0,1,0,1.518,1.076,1.076,0,0,1-1.518,0L27.05,21.183a.169.169,0,0,0-.239,0L25.3,22.718a6.644,6.644,0,0,1-4.737,2,6.777,6.777,0,0,1-4.836-2.055l-1.452-1.477a.169.169,0,0,0-.239,0L7.848,27.776a1.076,1.076,0,0,1-1.518,0,1.071,1.071,0,0,1,0-1.518l6.214-6.618a.176.176,0,0,0,0-.231L3.656,10.365a.163.163,0,0,0-.281.116v18.1a2.648,2.648,0,0,0,2.641,2.641H35.062A2.648,2.648,0,0,0,37.7,28.577V10.48A.165.165,0,0,0,37.422,10.365Z" transform="translate(-3.375 -7.452)"/><path class="a" d="M20.391,22.984a4.486,4.486,0,0,0,3.226-1.353L36.565,8.453a2.593,2.593,0,0,0-1.634-.578H5.86a2.576,2.576,0,0,0-1.634.578L17.173,21.631A4.487,4.487,0,0,0,20.391,22.984Z" transform="translate(-3.227 -7.875)"/></svg>