<svg xmlns="http://www.w3.org/2000/svg" width="39.477" height="39.477" viewBox="0 0 39.477 39.477"><defs><style>.a{fill:#ad5e6a;}</style></defs><path class="a" d="M13.57,16.654H25.906A1.233,1.233,0,0,0,27.14,15.42V14.187a1.233,1.233,0,0,0-1.234-1.234H13.57a1.233,1.233,0,0,0-1.234,1.234V15.42A1.233,1.233,0,0,0,13.57,16.654Zm-1.234,6.168a1.233,1.233,0,0,0,1.234,1.234H25.906a1.233,1.233,0,0,0,1.234-1.234V21.589a1.233,1.233,0,0,0-1.234-1.234H13.57a1.233,1.233,0,0,0-1.234,1.234Zm7.4,9.339a6.159,6.159,0,0,1-3.613-1.171L0,19.342V35.775a3.7,3.7,0,0,0,3.7,3.7H35.775a3.7,3.7,0,0,0,3.7-3.7V19.342L23.351,30.991A6.165,6.165,0,0,1,19.738,32.162Zm18.32-19.6c-.682-.535-1.329-1.039-2.283-1.759V7.4a3.7,3.7,0,0,0-3.7-3.7H26.1L25.4,3.2c-1.3-.946-3.871-3.222-5.66-3.2-1.789-.027-4.363,2.249-5.66,3.2l-.7.506H7.4A3.7,3.7,0,0,0,3.7,7.4v3.4c-.954.719-1.6,1.224-2.283,1.759A3.7,3.7,0,0,0,0,15.476V16.3l7.4,5.347V7.4H32.074V21.644l7.4-5.347v-.821a3.7,3.7,0,0,0-1.418-2.912Z"/></svg>