<svg xmlns="http://www.w3.org/2000/svg" width="43.922" height="39.042" viewBox="0 0 43.922 39.042"><defs><style>.a{fill:#5e6954;opacity:0.997;}</style></defs><path class="a" d="M16.614,17.438l1.93-12.811H8.505L4.311,15.608a3.849,3.849,0,0,0-.2,1.22c0,2.694,2.806,4.88,6.274,4.88,3.2,0,5.839-1.864,6.227-4.27Zm9.46,4.27c3.465,0,6.274-2.186,6.274-4.88,0-.1-.007-.2-.012-.3L31.093,4.627H21.055l-1.244,11.9c0,.1-.01.2-.01.305,0,2.694,2.809,4.88,6.274,4.88Zm12.2,2.552v9.648h-24.4V24.275a10.267,10.267,0,0,1-3.487.605,10.06,10.06,0,0,1-1.393-.12V40.253A3.424,3.424,0,0,0,12.4,43.669H39.739a3.428,3.428,0,0,0,3.416-3.416V24.763a10.484,10.484,0,0,1-1.393.12A10.14,10.14,0,0,1,38.275,24.261Zm9.565-8.653-4.2-10.981H33.6l1.928,12.791c.376,2.416,3.018,4.29,6.23,4.29,3.465,0,6.274-2.186,6.274-4.88A3.919,3.919,0,0,0,47.84,15.608Z" transform="translate(-4.113 -4.627)"/></svg>