<svg xmlns="http://www.w3.org/2000/svg" width="18.513" height="24.684" viewBox="0 0 18.513 24.684">
    <path id="Icon_awesome-clipboard-list" data-name="Icon awesome-clipboard-list" d="M16.2,3.085H12.342a3.085,3.085,0,0,0-6.171,0H2.314A2.315,2.315,0,0,0,0,5.4V22.37a2.315,2.315,0,0,0,2.314,2.314H16.2a2.315,2.315,0,0,0,2.314-2.314V5.4A2.315,2.315,0,0,0,16.2,3.085ZM4.628,20.441a1.157,1.157,0,1,1,1.157-1.157A1.154,1.154,0,0,1,4.628,20.441Zm0-4.628a1.157,1.157,0,1,1,1.157-1.157A1.154,1.154,0,0,1,4.628,15.813Zm0-4.628a1.157,1.157,0,1,1,1.157-1.157A1.154,1.154,0,0,1,4.628,11.185ZM9.256,1.928A1.157,1.157,0,1,1,8.1,3.085,1.154,1.154,0,0,1,9.256,1.928ZM15.427,19.67a.387.387,0,0,1-.386.386H8.1a.387.387,0,0,1-.386-.386V18.9a.387.387,0,0,1,.386-.386h6.942a.387.387,0,0,1,.386.386Zm0-4.628a.387.387,0,0,1-.386.386H8.1a.387.387,0,0,1-.386-.386V14.27a.387.387,0,0,1,.386-.386h6.942a.387.387,0,0,1,.386.386Zm0-4.628a.387.387,0,0,1-.386.386H8.1a.387.387,0,0,1-.386-.386V9.642A.387.387,0,0,1,8.1,9.256h6.942a.387.387,0,0,1,.386.386Z" fill="#5e6954"/>
</svg>
