<svg xmlns="http://www.w3.org/2000/svg" width="19" height="19.306" viewBox="0 0 19 19.306">
  <path id="Icon_awesome-power-off" data-name="Icon awesome-power-off" d="M15.579,2.072a9.5,9.5,0,1,1-11.04,0,.922.922,0,0,1,1.341.295l.605,1.076a.919.919,0,0,1-.253,1.188,6.435,6.435,0,1,0,7.657,0,.914.914,0,0,1-.249-1.184l.605-1.076a.918.918,0,0,1,1.333-.3Zm-3.984,8.041V.919A.917.917,0,0,0,10.675,0H9.45A.917.917,0,0,0,8.53.919v9.194a.917.917,0,0,0,.919.919h1.226A.917.917,0,0,0,11.595,10.113Z" transform="translate(-0.563)" fill="#ad5e6a"/>
</svg>
